<?xml version="1.0" standalone="no"?><!DOCTYPE svg PUBLIC "-//W3C//DTD SVG 1.1//EN" "http://www.w3.org/Graphics/SVG/1.1/DTD/svg11.dtd"><svg class="icon" width="200px" height="200.00px" viewBox="0 0 1024 1024" version="1.1" xmlns="http://www.w3.org/2000/svg"><path fill="#333333" d="M880.08 866.9H145.03c-43.53 0-79.15-35.62-79.15-79.15v-479.8c0-43.53 35.62-79.15 79.15-79.15h735.05c43.53 0 79.15 35.62 79.15 79.15v479.81c-0.01 43.53-35.62 79.14-79.15 79.14z m15.33-129.35v-379.4c0-36.05-29.49-65.54-65.54-65.54H195.23c-36.05 0-65.54 29.49-65.54 65.54v379.4c0 36.05 29.49 65.54 65.54 65.54h634.64c36.05 0 65.54-29.49 65.54-65.54z"  /><path fill="#333333" d="M97.79 388.33h829.53v63.81H97.79zM327.31 611.66h-76.18c-5.37 0-9.77-4.4-9.77-9.77v-44.27c0-5.37 4.4-9.77 9.77-9.77h76.18c5.37 0 9.77 4.4 9.77 9.77v44.27c0 5.38-4.4 9.77-9.77 9.77zM476.2 611.66h-76.18c-5.37 0-9.77-4.4-9.77-9.77v-44.27c0-5.37 4.4-9.77 9.77-9.77h76.18c5.37 0 9.77 4.4 9.77 9.77v44.27c0 5.38-4.4 9.77-9.77 9.77zM625.09 611.66h-76.18c-5.37 0-9.77-4.4-9.77-9.77v-44.27c0-5.37 4.4-9.77 9.77-9.77h76.18c5.37 0 9.77 4.4 9.77 9.77v44.27c0 5.38-4.4 9.77-9.77 9.77zM773.98 611.66H697.8c-5.37 0-9.77-4.4-9.77-9.77v-44.27c0-5.37 4.4-9.77 9.77-9.77h76.18c5.37 0 9.77 4.4 9.77 9.77v44.27c0 5.38-4.4 9.77-9.77 9.77z"  /><path fill="#333333" d="M327.31 739.28h-76.18c-5.37 0-9.77-4.4-9.77-9.77v-44.27c0-5.37 4.4-9.77 9.77-9.77h76.18c5.37 0 9.77 4.4 9.77 9.77v44.27c0 5.38-4.4 9.77-9.77 9.77zM476.2 739.28h-76.18c-5.37 0-9.77-4.4-9.77-9.77v-44.27c0-5.37 4.4-9.77 9.77-9.77h76.18c5.37 0 9.77 4.4 9.77 9.77v44.27c0 5.38-4.4 9.77-9.77 9.77zM625.09 739.28h-76.18c-5.37 0-9.77-4.4-9.77-9.77v-44.27c0-5.37 4.4-9.77 9.77-9.77h76.18c5.37 0 9.77 4.4 9.77 9.77v44.27c0 5.38-4.4 9.77-9.77 9.77zM773.98 739.28H697.8c-5.37 0-9.77-4.4-9.77-9.77v-44.27c0-5.37 4.4-9.77 9.77-9.77h76.18c5.37 0 9.77 4.4 9.77 9.77v44.27c0 5.38-4.4 9.77-9.77 9.77z"  /><path fill="#333333" d="M305.17 324.52V196.9c0-17.62 14.28-31.9 31.9-31.9 17.62 0 31.9 14.28 31.9 31.9v127.62c0 17.62-14.28 31.9-31.9 31.9-17.61 0-31.9-14.28-31.9-31.9zM656.13 324.52V196.9c0-17.62 14.28-31.9 31.9-31.9 17.62 0 31.9 14.28 31.9 31.9v127.62c0 17.62-14.28 31.9-31.9 31.9-17.62 0-31.9-14.28-31.9-31.9z"  /></svg>