<?xml version="1.0" standalone="no"?><!DOCTYPE svg PUBLIC "-//W3C//DTD SVG 1.1//EN" "http://www.w3.org/Graphics/SVG/1.1/DTD/svg11.dtd"><svg class="icon" width="200px" height="200.00px" viewBox="0 0 1024 1024" version="1.1" xmlns="http://www.w3.org/2000/svg"><path fill="#333333" d="M512 42.667C771.2 42.667 981.333 252.8 981.333 512S771.2 981.333 512 981.333 42.667 771.2 42.667 512 252.8 42.667 512 42.667z m0 55.466c-230.925 0-418.133 186.253-418.133 416s187.208 416 418.133 416 418.133-186.252 418.133-416-187.208-416-418.133-416z m0 106.667c169.66 0 307.2 137.54 307.2 307.2S681.66 819.2 512 819.2 204.8 681.66 204.8 512 342.34 204.8 512 204.8z" /></svg>