<?xml version="1.0" standalone="no"?><!DOCTYPE svg PUBLIC "-//W3C//DTD SVG 1.1//EN" "http://www.w3.org/Graphics/SVG/1.1/DTD/svg11.dtd"><svg
        class="icon" viewBox="0 0 1024 1024" version="1.1" xmlns="http://www.w3.org/2000/svg" xmlns:xlink="http://www.w3.org/1999/xlink" width="200" height="200"><defs><style type="text/css"></style></defs><path d="M942.4 476.8c-16-209.6-185.6-379.2-395.2-395.2-265.6-20.8-486.4 200-465.6 465.6 16 209.6 185.6 379.2 395.2 395.2 265.6 20.8 486.4-200 465.6-465.6z m-64 73.6c-17.6 172.8-156.8 312-328 328-233.6 22.4-427.2-171.2-404.8-404.8 17.6-172.8 156.8-312 328-328 233.6-22.4 427.2 171.2 404.8 404.8z"></path><path d="M544 483.2V241.6c0-14.4-8-27.2-20.8-32-22.4-6.4-43.2 9.6-43.2 30.4v262.4c0 1.6 0 1.6 1.6 3.2 0 1.6 0 1.6 1.6 3.2 0 1.6 1.6 1.6 1.6 3.2s0 1.6 1.6 3.2 3.2 3.2 3.2 4.8L624 654.4c9.6 9.6 25.6 14.4 38.4 6.4 20.8-11.2 24-36.8 8-51.2L544 483.2z"></path></svg>