<?xml version="1.0" standalone="no"?><!DOCTYPE svg PUBLIC "-//W3C//DTD SVG 1.1//EN" "http://www.w3.org/Graphics/SVG/1.1/DTD/svg11.dtd"><svg class="icon" width="200px" height="200.00px" viewBox="0 0 1024 1024" version="1.1" xmlns="http://www.w3.org/2000/svg"><path fill="#333333" d="M843.3 63.9H181.5c-64.3 0-116.9 52.6-116.9 116.9v661.8c0 64.3 52.6 116.9 116.9 116.9h661.8c64.3 0 116.9-52.6 116.9-116.9V180.8c0-64.2-52.6-116.9-116.9-116.9zM661.4 203.2c23.5-23.5 61-23.5 84.5 0l42.3 42.2c23.5 23.5 23.5 61 0 84.5l-42.3 42.3-126.8-126.7 42.3-42.3z m-300.5 554c-14.1 9.4-28.2 14.1-42.3 14.1l-145.5 46.9 47-145.5c0-14.1 4.7-28.2 14.1-42.2v-4.7l131.5 131.4h-4.8z m-79.8-173.7l295.8-295.8 126.8 126.8-295.8 295.8-126.8-126.8zM806.3 876h-0.4c-122.5-1-324.2-2-344.2-0.3-23.5 2.1-46-15.1-49-39-2.9-23.9 12.8-45.7 36.5-49.6 14-2.3 134.2-2.4 357.4-0.6 24.7 0.2 44.6 20.4 44.4 45.1-0.1 24.6-20.1 44.4-44.7 44.4z" /></svg>